<svg viewBox="0 0 980 430" xmlns="http://www.w3.org/2000/svg" role="img"
     aria-label="Context size per turn over a 36-turn session: without VelesDB it grows about 555 tokens per turn, with VelesDB about 333 — roughly 1.7 times more headroom before the context limit">
  <!-- GENERATED by examples/real-session-benchmark/make_gains_svg.mjs from live measured runs.
       Regenerate: node examples/real-session-benchmark/make_gains_svg.mjs
       Axis starts at zero; both curves are the 36 measured per-turn totals (lossless mode).
       The threshold crossings quoted in the side panel are LINEAR PROJECTIONS from the
       measured last-10-turn growth, labeled as such. -->
  <rect x="0" y="0" width="980" height="430" fill="#ffffff"/>
  <text x="490" y="34" text-anchor="middle" font-family="Helvetica, Arial, sans-serif" font-size="19" font-weight="700" fill="#0f172a">How fast a session fills up (measured, 36 turns)</text>
  <text x="490" y="56" text-anchor="middle" font-family="Helvetica, Arial, sans-serif" font-size="13" fill="#475569">context size after each message &#8226; slower growth = more headroom (more turns fit in one session)</text>
  <!-- axes -->
  <line x1="70" y1="352" x2="700" y2="352" stroke="#94a3b8" stroke-width="1.5"/>
  <line x1="70" y1="92" x2="70" y2="352" stroke="#94a3b8" stroke-width="1.5"/>
  <text x="62" y="356" text-anchor="end" font-family="Helvetica, Arial, sans-serif" font-size="11" fill="#64748b">0</text>
  <text x="62" y="118.58309591642927" text-anchor="end" font-family="Helvetica, Arial, sans-serif" font-size="11" fill="#64748b">20k</text>
  <text x="62" y="237.29154795821464" text-anchor="end" font-family="Helvetica, Arial, sans-serif" font-size="11" fill="#64748b">10k</text>
  <text x="385" y="378" text-anchor="middle" font-family="Helvetica, Arial, sans-serif" font-size="12" fill="#475569">turn 1 &#8594; turn 36</text>
  <!-- curves -->
  <path d="M70.0,341.8 L88.0,331.4 L106.0,329.4 L124.0,323.2 L142.0,284.2 L160.0,281.3 L178.0,280.9 L196.0,270.4 L214.0,258.0 L232.0,257.7 L250.0,254.2 L268.0,248.0 L286.0,238.4 L304.0,228.2 L322.0,223.9 L340.0,220.6 L358.0,216.9 L376.0,214.6 L394.0,206.7 L412.0,202.4 L430.0,161.5 L448.0,160.9 L466.0,158.2 L484.0,147.8 L502.0,139.6 L520.0,139.0 L538.0,136.1 L556.0,129.8 L574.0,129.3 L592.0,125.7 L610.0,121.5 L628.0,121.2 L646.0,113.3 L664.0,112.6 L682.0,112.3 L700.0,111.3" fill="none" stroke="#475569" stroke-width="2.5"/>
  <path d="M70.0,341.8 L88.0,331.4 L106.0,329.4 L124.0,323.2 L142.0,284.2 L160.0,281.3 L178.0,280.9 L196.0,280.6 L214.0,277.3 L232.0,277.0 L250.0,273.5 L268.0,273.3 L286.0,272.9 L304.0,272.1 L322.0,267.8 L340.0,267.5 L358.0,263.8 L376.0,261.6 L394.0,253.6 L412.0,253.3 L430.0,212.4 L448.0,211.8 L466.0,209.1 L484.0,208.8 L502.0,208.3 L520.0,207.7 L538.0,207.4 L556.0,207.1 L574.0,206.5 L592.0,206.2 L610.0,206.0 L628.0,205.7 L646.0,205.5 L664.0,204.8 L682.0,204.5 L700.0,203.5" fill="none" stroke="#15803d" stroke-width="2.5"/>
  <text x="694" y="101.2592592592593" text-anchor="end" font-family="Helvetica, Arial, sans-serif" font-size="12" font-weight="600" fill="#334155">without: 20,280 tokens</text>
  <text x="694" y="223.46011396011397" text-anchor="end" font-family="Helvetica, Arial, sans-serif" font-size="12" font-weight="600" fill="#14532d">with: 12,513 tokens</text>
  <!-- side panel -->
  <rect x="722" y="92" width="238" height="200" rx="8" fill="#f8fafc" stroke="#cbd5e1" stroke-width="1.5"/>
  <text x="841" y="120" text-anchor="middle" font-family="Helvetica, Arial, sans-serif" font-size="26" font-weight="700" fill="#15803d">1.7&#215;</text>
  <text x="841" y="140" text-anchor="middle" font-family="Helvetica, Arial, sans-serif" font-size="12" fill="#334155">more headroom</text>
  <text x="734" y="168" font-family="Helvetica, Arial, sans-serif" font-size="11" fill="#475569">growth per turn (measured):</text>
  <text x="734" y="185" font-family="Helvetica, Arial, sans-serif" font-size="11" fill="#334155">&#8226; without: ~555 tokens/turn</text>
  <text x="734" y="202" font-family="Helvetica, Arial, sans-serif" font-size="11" fill="#14532d">&#8226; with: ~333 tokens/turn</text>
  <text x="734" y="219" font-family="Helvetica, Arial, sans-serif" font-size="10" fill="#64748b">full session; up to 6.6x in re-read phases</text>
  <text x="734" y="230" font-family="Helvetica, Arial, sans-serif" font-size="11" fill="#475569">a 180k compaction threshold is</text>
  <text x="734" y="247" font-family="Helvetica, Arial, sans-serif" font-size="11" fill="#475569">reached ~turn 324 vs ~turn 539</text>
  <text x="734" y="264" font-family="Helvetica, Arial, sans-serif" font-size="11" fill="#64748b">(projected from measured growth)</text>
  <text x="490" y="416" text-anchor="middle" font-family="Helvetica, Arial, sans-serif" font-size="12" fill="#64748b">measured, reproducible: examples/real-session-benchmark (node long-session.mjs, deterministic, run twice byte-identical)</text>
</svg>
